<mxfile host="app.diagrams.net" modified="2023-04-26T08:32:24.186Z" agent="Mozilla/5.0 (Windows NT 10.0; Win64; x64) AppleWebKit/537.36 (KHTML, like Gecko) Chrome/112.0.0.0 Safari/537.36" etag="w4WkdjKRskQhoITo9P8f" version="21.2.1" type="github">
  <diagram id="C5RBs43oDa-KdzZeNtuy" name="Page-1">
    <mxGraphModel dx="1120" dy="522" grid="1" gridSize="10" guides="1" tooltips="1" connect="1" arrows="1" fold="1" page="1" pageScale="1" pageWidth="827" pageHeight="1169" math="0" shadow="0">
      <root>
        <mxCell id="WIyWlLk6GJQsqaUBKTNV-0" />
        <mxCell id="WIyWlLk6GJQsqaUBKTNV-1" parent="WIyWlLk6GJQsqaUBKTNV-0" />
        <mxCell id="zkfFHV4jXpPFQw0GAbJ--0" value="" style="swimlane;fontStyle=2;align=center;verticalAlign=top;childLayout=stackLayout;horizontal=1;startSize=26;horizontalStack=0;resizeParent=1;resizeLast=0;collapsible=1;marginBottom=0;rounded=0;shadow=0;strokeWidth=1;" parent="WIyWlLk6GJQsqaUBKTNV-1" vertex="1">
          <mxGeometry x="200" y="120" width="170" height="240" as="geometry">
            <mxRectangle x="230" y="140" width="160" height="26" as="alternateBounds" />
          </mxGeometry>
        </mxCell>
        <mxCell id="soSPxgYEKD4eUONyp6x5-14" value="&lt;div style=&quot;text-align: left;&quot;&gt;&lt;br&gt;&lt;/div&gt;&lt;div style=&quot;text-align: left;&quot;&gt;MANDATORY&lt;/div&gt;&lt;div style=&quot;text-align: left;&quot;&gt;&lt;span style=&quot;background-color: initial;&quot;&gt;&lt;br&gt;&lt;/span&gt;&lt;/div&gt;&lt;div style=&quot;text-align: left;&quot;&gt;TYPE&lt;/div&gt;&lt;div style=&quot;text-align: left;&quot;&gt;&lt;span style=&quot;background-color: initial;&quot;&gt;&lt;br&gt;&lt;/span&gt;&lt;/div&gt;&lt;div style=&quot;text-align: left;&quot;&gt;&lt;span style=&quot;background-color: initial;&quot;&gt;QUESTIONS&lt;/span&gt;&lt;/div&gt;&lt;div style=&quot;text-align: left;&quot;&gt;&lt;br&gt;&lt;/div&gt;&lt;div style=&quot;text-align: left;&quot;&gt;&lt;span style=&quot;background-color: initial;&quot;&gt;DURATION&lt;/span&gt;&lt;/div&gt;&lt;div style=&quot;text-align: left;&quot;&gt;&lt;br&gt;&lt;/div&gt;&lt;div style=&quot;text-align: left;&quot;&gt;&lt;span style=&quot;background-color: initial;&quot;&gt;&lt;br&gt;&lt;/span&gt;&lt;/div&gt;" style="text;html=1;align=center;verticalAlign=middle;resizable=0;points=[];autosize=1;strokeColor=none;fillColor=none;" parent="zkfFHV4jXpPFQw0GAbJ--0" vertex="1">
          <mxGeometry y="26" width="170" height="160" as="geometry" />
        </mxCell>
        <mxCell id="zkfFHV4jXpPFQw0GAbJ--17" value="MANDATORY" style="swimlane;fontStyle=1;align=center;verticalAlign=top;childLayout=stackLayout;horizontal=1;startSize=26;horizontalStack=0;resizeParent=1;resizeLast=0;collapsible=1;marginBottom=0;rounded=0;shadow=0;strokeWidth=1;" parent="WIyWlLk6GJQsqaUBKTNV-1" vertex="1">
          <mxGeometry x="482" y="93" width="160" height="96" as="geometry">
            <mxRectangle x="550" y="140" width="160" height="26" as="alternateBounds" />
          </mxGeometry>
        </mxCell>
        <mxCell id="soSPxgYEKD4eUONyp6x5-0" value="" style="endArrow=none;html=1;rounded=0;" parent="WIyWlLk6GJQsqaUBKTNV-1" edge="1">
          <mxGeometry width="50" height="50" relative="1" as="geometry">
            <mxPoint x="575" y="440" as="sourcePoint" />
            <mxPoint x="735" y="440" as="targetPoint" />
          </mxGeometry>
        </mxCell>
        <mxCell id="soSPxgYEKD4eUONyp6x5-2" value="" style="endArrow=classic;html=1;rounded=0;" parent="WIyWlLk6GJQsqaUBKTNV-1" edge="1">
          <mxGeometry width="50" height="50" relative="1" as="geometry">
            <mxPoint x="734" y="440.5" as="sourcePoint" />
            <mxPoint x="734" y="471.5" as="targetPoint" />
          </mxGeometry>
        </mxCell>
        <mxCell id="soSPxgYEKD4eUONyp6x5-3" value="REQUIRED" style="swimlane;fontStyle=1;align=center;verticalAlign=top;childLayout=stackLayout;horizontal=1;startSize=26;horizontalStack=0;resizeParent=1;resizeLast=0;collapsible=1;marginBottom=0;rounded=0;shadow=0;strokeWidth=1;" parent="WIyWlLk6GJQsqaUBKTNV-1" vertex="1">
          <mxGeometry x="691" y="479.5" width="165" height="120" as="geometry">
            <mxRectangle x="550" y="140" width="160" height="26" as="alternateBounds" />
          </mxGeometry>
        </mxCell>
        <mxCell id="soSPxgYEKD4eUONyp6x5-4" value="Â BOOLEAN" style="text;align=left;verticalAlign=top;spacingLeft=4;spacingRight=4;overflow=hidden;rotatable=0;points=[[0,0.5],[1,0.5]];portConstraint=eastwest;" parent="soSPxgYEKD4eUONyp6x5-3" vertex="1">
          <mxGeometry y="26" width="165" height="26" as="geometry" />
        </mxCell>
        <mxCell id="soSPxgYEKD4eUONyp6x5-10" value="&amp;nbsp; &amp;nbsp; IF TURE&amp;nbsp; QUESTION IS&lt;br&gt;&amp;nbsp;COMPULSORY&amp;nbsp; ELSE&lt;br&gt;&amp;nbsp;OPTIONAL" style="text;html=1;align=center;verticalAlign=middle;resizable=0;points=[];autosize=1;strokeColor=none;fillColor=none;" parent="soSPxgYEKD4eUONyp6x5-3" vertex="1">
          <mxGeometry y="52" width="165" height="60" as="geometry" />
        </mxCell>
        <mxCell id="soSPxgYEKD4eUONyp6x5-12" value="SURVEY&amp;nbsp;" style="shape=cylinder3;whiteSpace=wrap;html=1;boundedLbl=1;backgroundOutline=1;size=15;" parent="WIyWlLk6GJQsqaUBKTNV-1" vertex="1">
          <mxGeometry x="47" y="223" width="80" height="80" as="geometry" />
        </mxCell>
        <mxCell id="soSPxgYEKD4eUONyp6x5-13" value="" style="endArrow=classic;html=1;rounded=0;" parent="WIyWlLk6GJQsqaUBKTNV-1" edge="1">
          <mxGeometry width="50" height="50" relative="1" as="geometry">
            <mxPoint x="127" y="262.5" as="sourcePoint" />
            <mxPoint x="197" y="262.5" as="targetPoint" />
          </mxGeometry>
        </mxCell>
        <mxCell id="FhvN2nVItyZ0-wlm7GPE-0" value="" style="endArrow=none;html=1;rounded=0;" parent="WIyWlLk6GJQsqaUBKTNV-1" edge="1">
          <mxGeometry width="50" height="50" relative="1" as="geometry">
            <mxPoint x="370" y="280" as="sourcePoint" />
            <mxPoint x="430" y="280" as="targetPoint" />
          </mxGeometry>
        </mxCell>
        <mxCell id="FhvN2nVItyZ0-wlm7GPE-1" value="" style="endArrow=classic;html=1;rounded=0;" parent="WIyWlLk6GJQsqaUBKTNV-1" edge="1">
          <mxGeometry width="50" height="50" relative="1" as="geometry">
            <mxPoint x="431" y="280" as="sourcePoint" />
            <mxPoint x="431" y="400" as="targetPoint" />
          </mxGeometry>
        </mxCell>
        <mxCell id="FhvN2nVItyZ0-wlm7GPE-2" value="QUESTIONS" style="swimlane;" parent="WIyWlLk6GJQsqaUBKTNV-1" vertex="1">
          <mxGeometry x="295" y="400" width="280" height="260" as="geometry" />
        </mxCell>
        <mxCell id="FhvN2nVItyZ0-wlm7GPE-4" value="ARRAY" style="text;html=1;align=center;verticalAlign=middle;resizable=0;points=[];autosize=1;strokeColor=none;fillColor=none;" parent="FhvN2nVItyZ0-wlm7GPE-2" vertex="1">
          <mxGeometry x="20" y="30" width="60" height="30" as="geometry" />
        </mxCell>
        <mxCell id="FhvN2nVItyZ0-wlm7GPE-7" value="" style="swimlane;" parent="FhvN2nVItyZ0-wlm7GPE-2" vertex="1">
          <mxGeometry x="15" y="62" width="195" height="178" as="geometry" />
        </mxCell>
        <mxCell id="FhvN2nVItyZ0-wlm7GPE-8" value="TITLE&lt;br&gt;&lt;br&gt;OPTION TYPES&lt;br&gt;&lt;br&gt;OPTIONS&lt;br&gt;&lt;br&gt;REQUIRED&lt;br&gt;&lt;br&gt;ANSWERS" style="text;html=1;align=left;verticalAlign=middle;resizable=0;points=[];autosize=1;strokeColor=none;fillColor=none;" parent="FhvN2nVItyZ0-wlm7GPE-7" vertex="1">
          <mxGeometry x="20" y="29.5" width="110" height="140" as="geometry" />
        </mxCell>
        <mxCell id="FhvN2nVItyZ0-wlm7GPE-9" value="" style="endArrow=none;html=1;rounded=0;" parent="WIyWlLk6GJQsqaUBKTNV-1" edge="1">
          <mxGeometry width="50" height="50" relative="1" as="geometry">
            <mxPoint x="578" y="410" as="sourcePoint" />
            <mxPoint x="728" y="410" as="targetPoint" />
          </mxGeometry>
        </mxCell>
        <mxCell id="FhvN2nVItyZ0-wlm7GPE-10" value="" style="endArrow=classic;html=1;rounded=0;" parent="WIyWlLk6GJQsqaUBKTNV-1" edge="1">
          <mxGeometry width="50" height="50" relative="1" as="geometry">
            <mxPoint x="728.5" y="410" as="sourcePoint" />
            <mxPoint x="728.5" y="380" as="targetPoint" />
          </mxGeometry>
        </mxCell>
        <mxCell id="FhvN2nVItyZ0-wlm7GPE-12" value="" style="endArrow=none;html=1;rounded=0;" parent="WIyWlLk6GJQsqaUBKTNV-1" edge="1">
          <mxGeometry width="50" height="50" relative="1" as="geometry">
            <mxPoint x="580" y="490" as="sourcePoint" />
            <mxPoint x="640" y="490" as="targetPoint" />
          </mxGeometry>
        </mxCell>
        <mxCell id="FhvN2nVItyZ0-wlm7GPE-13" value="" style="endArrow=classic;html=1;rounded=0;" parent="WIyWlLk6GJQsqaUBKTNV-1" edge="1">
          <mxGeometry width="50" height="50" relative="1" as="geometry">
            <mxPoint x="640" y="491" as="sourcePoint" />
            <mxPoint x="640" y="690" as="targetPoint" />
          </mxGeometry>
        </mxCell>
        <mxCell id="FhvN2nVItyZ0-wlm7GPE-14" value="OPTION TYPES" style="swimlane;" parent="WIyWlLk6GJQsqaUBKTNV-1" vertex="1">
          <mxGeometry x="540" y="690" width="230" height="90" as="geometry" />
        </mxCell>
        <mxCell id="FhvN2nVItyZ0-wlm7GPE-16" value="INPUT, SELECT, RADIO, CHECKBOX" style="text;html=1;align=left;verticalAlign=middle;resizable=0;points=[];autosize=1;strokeColor=none;fillColor=none;" parent="FhvN2nVItyZ0-wlm7GPE-14" vertex="1">
          <mxGeometry x="3" y="55" width="230" height="30" as="geometry" />
        </mxCell>
        <mxCell id="FhvN2nVItyZ0-wlm7GPE-15" value="ENUM" style="text;html=1;align=left;verticalAlign=middle;resizable=0;points=[];autosize=1;strokeColor=none;fillColor=none;" parent="WIyWlLk6GJQsqaUBKTNV-1" vertex="1">
          <mxGeometry x="550" y="715" width="60" height="30" as="geometry" />
        </mxCell>
        <mxCell id="FhvN2nVItyZ0-wlm7GPE-17" value="" style="endArrow=classic;html=1;rounded=0;" parent="WIyWlLk6GJQsqaUBKTNV-1" edge="1">
          <mxGeometry width="50" height="50" relative="1" as="geometry">
            <mxPoint x="479" y="666" as="sourcePoint" />
            <mxPoint x="479" y="798" as="targetPoint" />
          </mxGeometry>
        </mxCell>
        <mxCell id="FhvN2nVItyZ0-wlm7GPE-18" value="OPTIONS" style="swimlane;" parent="WIyWlLk6GJQsqaUBKTNV-1" vertex="1">
          <mxGeometry x="47" y="730" width="150" height="60" as="geometry" />
        </mxCell>
        <mxCell id="FhvN2nVItyZ0-wlm7GPE-46" value="ARRAY" style="text;html=1;align=center;verticalAlign=middle;resizable=0;points=[];autosize=1;strokeColor=none;fillColor=none;" parent="FhvN2nVItyZ0-wlm7GPE-18" vertex="1">
          <mxGeometry x="2" y="25" width="60" height="30" as="geometry" />
        </mxCell>
        <mxCell id="FhvN2nVItyZ0-wlm7GPE-20" value="ARRAY" style="text;html=1;align=center;verticalAlign=middle;resizable=0;points=[];autosize=1;strokeColor=none;fillColor=none;" parent="WIyWlLk6GJQsqaUBKTNV-1" vertex="1">
          <mxGeometry x="414" y="828" width="60" height="30" as="geometry" />
        </mxCell>
        <mxCell id="FhvN2nVItyZ0-wlm7GPE-21" value="" style="endArrow=classic;html=1;rounded=0;" parent="WIyWlLk6GJQsqaUBKTNV-1" edge="1">
          <mxGeometry width="50" height="50" relative="1" as="geometry">
            <mxPoint x="370" y="160" as="sourcePoint" />
            <mxPoint x="480" y="160" as="targetPoint" />
          </mxGeometry>
        </mxCell>
        <mxCell id="FhvN2nVItyZ0-wlm7GPE-22" value="DURATION" style="swimlane;fontStyle=1;align=center;verticalAlign=top;childLayout=stackLayout;horizontal=1;startSize=26;horizontalStack=0;resizeParent=1;resizeLast=0;collapsible=1;marginBottom=0;rounded=0;shadow=0;strokeWidth=1;" parent="WIyWlLk6GJQsqaUBKTNV-1" vertex="1">
          <mxGeometry x="47" y="450" width="213" height="180" as="geometry">
            <mxRectangle x="550" y="140" width="160" height="26" as="alternateBounds" />
          </mxGeometry>
        </mxCell>
        <mxCell id="FhvN2nVItyZ0-wlm7GPE-34" value="OBJECT" style="text;html=1;align=center;verticalAlign=middle;resizable=0;points=[];autosize=1;strokeColor=none;fillColor=none;" parent="FhvN2nVItyZ0-wlm7GPE-22" vertex="1">
          <mxGeometry y="26" width="213" height="30" as="geometry" />
        </mxCell>
        <mxCell id="FhvN2nVItyZ0-wlm7GPE-37" value="" style="swimlane;" parent="FhvN2nVItyZ0-wlm7GPE-22" vertex="1">
          <mxGeometry y="56" width="213" height="84" as="geometry" />
        </mxCell>
        <mxCell id="FhvN2nVItyZ0-wlm7GPE-23" value="ENUM" style="text;html=1;align=left;verticalAlign=middle;resizable=0;points=[];autosize=1;strokeColor=none;fillColor=none;" parent="WIyWlLk6GJQsqaUBKTNV-1" vertex="1">
          <mxGeometry x="497" y="115" width="60" height="30" as="geometry" />
        </mxCell>
        <mxCell id="FhvN2nVItyZ0-wlm7GPE-24" value="[ YES, NO ]" style="text;html=1;align=center;verticalAlign=middle;resizable=0;points=[];autosize=1;strokeColor=none;fillColor=none;" parent="WIyWlLk6GJQsqaUBKTNV-1" vertex="1">
          <mxGeometry x="483" y="145" width="90" height="30" as="geometry" />
        </mxCell>
        <mxCell id="FhvN2nVItyZ0-wlm7GPE-26" value="TYPE" style="swimlane;fontStyle=1;align=center;verticalAlign=top;childLayout=stackLayout;horizontal=1;startSize=26;horizontalStack=0;resizeParent=1;resizeLast=0;collapsible=1;marginBottom=0;rounded=0;shadow=0;strokeWidth=1;" parent="WIyWlLk6GJQsqaUBKTNV-1" vertex="1">
          <mxGeometry x="482" y="210" width="138" height="69" as="geometry">
            <mxRectangle x="550" y="140" width="160" height="26" as="alternateBounds" />
          </mxGeometry>
        </mxCell>
        <mxCell id="FhvN2nVItyZ0-wlm7GPE-27" value="" style="endArrow=classic;html=1;rounded=0;" parent="WIyWlLk6GJQsqaUBKTNV-1" edge="1">
          <mxGeometry width="50" height="50" relative="1" as="geometry">
            <mxPoint x="370" y="259" as="sourcePoint" />
            <mxPoint x="480" y="259" as="targetPoint" />
          </mxGeometry>
        </mxCell>
        <mxCell id="FhvN2nVItyZ0-wlm7GPE-28" value="STRING" style="text;html=1;align=left;verticalAlign=middle;resizable=0;points=[];autosize=1;strokeColor=none;fillColor=none;" parent="WIyWlLk6GJQsqaUBKTNV-1" vertex="1">
          <mxGeometry x="493" y="242" width="70" height="30" as="geometry" />
        </mxCell>
        <mxCell id="FhvN2nVItyZ0-wlm7GPE-31" value="" style="endArrow=none;html=1;rounded=0;" parent="WIyWlLk6GJQsqaUBKTNV-1" edge="1">
          <mxGeometry width="50" height="50" relative="1" as="geometry">
            <mxPoint x="127" y="320" as="sourcePoint" />
            <mxPoint x="197" y="320" as="targetPoint" />
          </mxGeometry>
        </mxCell>
        <mxCell id="FhvN2nVItyZ0-wlm7GPE-32" value="" style="endArrow=classic;html=1;rounded=0;" parent="WIyWlLk6GJQsqaUBKTNV-1" edge="1">
          <mxGeometry width="50" height="50" relative="1" as="geometry">
            <mxPoint x="126" y="320" as="sourcePoint" />
            <mxPoint x="126" y="440" as="targetPoint" />
          </mxGeometry>
        </mxCell>
        <mxCell id="FhvN2nVItyZ0-wlm7GPE-33" value="TITLE" style="swimlane;fontStyle=1;align=center;verticalAlign=top;childLayout=stackLayout;horizontal=1;startSize=26;horizontalStack=0;resizeParent=1;resizeLast=0;collapsible=1;marginBottom=0;rounded=0;shadow=0;strokeWidth=1;" parent="WIyWlLk6GJQsqaUBKTNV-1" vertex="1">
          <mxGeometry x="650" y="320" width="160" height="61" as="geometry">
            <mxRectangle x="550" y="140" width="160" height="26" as="alternateBounds" />
          </mxGeometry>
        </mxCell>
        <mxCell id="FhvN2nVItyZ0-wlm7GPE-25" value="STRING" style="text;html=1;align=center;verticalAlign=middle;resizable=0;points=[];autosize=1;strokeColor=none;fillColor=none;" parent="FhvN2nVItyZ0-wlm7GPE-33" vertex="1">
          <mxGeometry y="26" width="160" height="30" as="geometry" />
        </mxCell>
        <mxCell id="FhvN2nVItyZ0-wlm7GPE-38" value="&lt;div style=&quot;text-align: left;&quot;&gt;&lt;span style=&quot;background-color: initial;&quot;&gt;START DATETIME&lt;/span&gt;&lt;/div&gt;&lt;br&gt;&lt;div style=&quot;text-align: left;&quot;&gt;&lt;span style=&quot;background-color: initial;&quot;&gt;END DATETIME&lt;/span&gt;&lt;/div&gt;" style="text;html=1;align=center;verticalAlign=middle;resizable=0;points=[];autosize=1;strokeColor=none;fillColor=none;" parent="WIyWlLk6GJQsqaUBKTNV-1" vertex="1">
          <mxGeometry x="50" y="530" width="120" height="60" as="geometry" />
        </mxCell>
        <mxCell id="FhvN2nVItyZ0-wlm7GPE-43" value="" style="endArrow=none;html=1;rounded=0;" parent="WIyWlLk6GJQsqaUBKTNV-1" edge="1">
          <mxGeometry width="50" height="50" relative="1" as="geometry">
            <mxPoint x="360" y="670" as="sourcePoint" />
            <mxPoint x="360" y="760" as="targetPoint" />
          </mxGeometry>
        </mxCell>
        <mxCell id="FhvN2nVItyZ0-wlm7GPE-44" value="" style="endArrow=classic;html=1;rounded=0;" parent="WIyWlLk6GJQsqaUBKTNV-1" edge="1">
          <mxGeometry width="50" height="50" relative="1" as="geometry">
            <mxPoint x="360" y="760" as="sourcePoint" />
            <mxPoint x="200" y="760" as="targetPoint" />
          </mxGeometry>
        </mxCell>
        <mxCell id="FhvN2nVItyZ0-wlm7GPE-45" value="OPTIONS" style="swimlane;" parent="WIyWlLk6GJQsqaUBKTNV-1" vertex="1">
          <mxGeometry x="420" y="810" width="150" height="60" as="geometry" />
        </mxCell>
      </root>
    </mxGraphModel>
  </diagram>
</mxfile>
